<?xml version="1.0" encoding="UTF-8"?>
<svg xmlns="http://www.w3.org/2000/svg" width="209" height="52" viewBox="0 0 209 52" fill="none">
  <g id="a" clip-path="url(#clip0_723_18228)">
    <g id="Group">
      <path id="Vector" d="M70.7189 12.3125V39.6877H63.4698V12.3125H70.7189Z" fill="white"></path>
      <path id="Vector_2" d="M125.111 12.3125V39.6877H117.862V12.3125H125.111Z" fill="white"></path>
      <path id="Vector_3" d="M166.668 12.3125V18.2791H140.851C139.523 18.2791 138.503 19.3114 138.503 20.6479C138.503 21.9845 139.523 23.0168 140.851 23.0168H159.504C164.174 23.0168 167.765 26.6461 167.765 31.3522C167.765 36.0583 164.174 39.6877 159.504 39.6877H131.704V33.7211H158.17C159.497 33.7211 160.518 32.69 160.518 31.3522C160.518 30.0145 159.497 28.9834 158.17 28.9834H139.515C134.845 28.9834 131.255 25.354 131.255 20.6479C131.255 15.9418 134.845 12.3125 139.515 12.3125H166.668Z" fill="white"></path>
      <path id="Vector_4" d="M207.895 12.3125V18.2791H182.077C180.75 18.2791 179.729 19.3114 179.729 20.6479C179.729 21.9845 180.75 23.0168 182.077 23.0168H200.731C205.401 23.0168 208.992 26.6461 208.992 31.3522C208.992 36.0583 205.401 39.6877 200.731 39.6877H172.93V33.7211H199.396C200.723 33.7211 201.744 32.69 201.744 31.3522C201.744 30.0145 200.723 28.9834 199.396 28.9834H180.742C176.071 28.9834 172.481 25.354 172.481 20.6479C172.481 15.9418 176.071 12.3125 180.742 12.3125H207.895Z" fill="white"></path>
      <path id="Vector_5" d="M105.108 29.6879C108.949 28.7563 111.807 25.2767 111.807 21.1149C111.807 16.2402 107.89 12.2878 103.058 12.2878C102.751 12.2878 102.448 12.3042 102.149 12.3358H103.367H82.8585V12.3323H77.0317V39.6572H82.8585V29.9594H98.1477L105.029 39.7122H112.181L105.108 29.6879ZM103.058 24.0794C103.036 24.0794 103.015 24.0736 102.993 24.0724H95.2117L95.2175 24.0806H82.8585V24.0724H82.8504V18.1936H103.099V18.2193C104.684 18.2416 105.964 19.5419 105.964 21.1465C105.964 22.7651 104.664 24.0794 103.058 24.0794Z" fill="white"></path>
    </g>
    <g id="Group_2">
      <path id="Vector_6" d="M45.646 26.4026L25.914 37.6441L25.9418 37.6593L22.826 39.402L18.5617 36.9735L14.1513 34.4607V47.0575L22.826 52L31.6816 46.9545L41.6091 41.4034L41.565 41.3238L45.646 38.9994V26.4026Z" fill="white"></path>
      <path id="Vector_7" d="M34.5898 6.7016V6.71798L27.0346 2.31735L27.0009 2.37821L22.826 0L11.7698 6.29899L22.826 12.5968L27.0914 15.0265L30.771 17.1238L34.5898 19.3476V29.1834L45.646 22.8844V12.9994L34.5898 6.7016Z" fill="white"></path>
      <path id="Vector_8" d="M11.0376 19.3137L19.7378 14.3559L8.68163 8.05811L0.00695801 12.9995V25.5974L0.0347986 25.581V29.0992L0.00695801 29.1156V38.9995L11.0632 45.2984V32.7016V22.8166L11.0376 22.8318V19.3137Z" fill="white"></path>
    </g>
  </g>
  <defs>
    <clipPath id="clip0_723_18228">
      <rect width="209" height="52" fill="white"></rect>
    </clipPath>
  </defs>
</svg>
